<?xml version="1.0" encoding="utf-8"?>
<!-- Generator: Adobe Illustrator 16.0.2, SVG Export Plug-In . SVG Version: 6.00 Build 0)  -->
<!DOCTYPE svg PUBLIC "-//W3C//DTD SVG 1.0//EN" "http://www.w3.org/TR/2001/REC-SVG-20010904/DTD/svg10.dtd">
<svg version="1.0" id="Layer_1" xmlns="http://www.w3.org/2000/svg" xmlns:xlink="http://www.w3.org/1999/xlink" x="0px" y="0px"
	 width="2960px" height="184px" viewBox="0 0 2960 184" enable-background="new 0 0 2960 184" xml:space="preserve">
<g>
	<path fill="#FFFFFF" d="M303,3h3v180h-3V3L303,3z M303,3"/>
	<path fill="#FFCB05" d="M126,151.579L75,81.132v50.869h21V183H0v-50.999h18V54H0V3h75l51,70.957L177,3h75v51h-18v78.001h18V183h-96
		v-50.999h21V81.132l-50.987,70.447H126z"/>
	<path fill="#FFFFFF" d="M1066.928,183.051V181c2.592-0.18,4.599-0.385,4.599-2.492c0-0.754-0.259-1.566-0.46-2.26l-1.119-3.881
		h-13.445l-1.197,3.273c-0.254,0.84-0.479,1.58-0.479,2.393c0,2.689,2.846,2.861,5.178,2.967v2.051h-15.708V181
		c4.006-0.18,5.299-0.969,6.75-4.979l10.33-28.297l-0.612-0.912c4.416-1.447,5.657-2.131,7.561-3.527
		c0.761,2.588,0.866,2.918,1.702,5.633l8.45,25.912c1.524,4.594,2.237,5.734,6.272,6.17v2.051H1066.928L1066.928,183.051z
		 M1063.479,152.445l-5.582,15.816h10.96L1063.479,152.445L1063.479,152.445z M930.709,174.574
		c-1.678,2.742-5.738,9.492-16.27,9.492c-11.471,0-18.932-8.451-18.932-19.584c0-10.336,6.314-20.484,19.185-20.484
		c6.775,0,10.383,2.84,12.585,4.592l2.619-2.359l0.2,11.545l-1.702,0.328c-0.654-2.232-1.623-4.008-4.111-6.697
		c-1.166-1.219-3.981-3.732-7.966-3.732c-6.905,0-12.338,5.611-12.338,15.506c0,8.377,4.472,16.266,13.298,16.266
		c6.652,0,9.162-3.729,11.17-6.563L930.709,174.574L930.709,174.574z M937.15,183.051V181c4.315-0.385,4.367-1.299,4.367-4.979
		c0.054-1.344,0.054-2.689,0.054-4.035V156c0-2.514,0-4.973-0.182-6.168c-0.202-2.283-1.294-2.588-4.239-2.867v-2.057h16.348v2.057
		c-3.204,0.33-4.395,0.432-4.773,2.539c-0.28,1.215-0.336,4.033-0.336,6.324v5.246c3.305,0.178,5.588,0.279,8.785,0.279
		c3.249,0,5.809-0.102,9.056-0.279v-6.371c-0.044-6.979-0.122-7.256-5.3-7.738v-2.057h16.545v2.057
		c-4.443,0.533-4.443,0.609-4.443,7.84v16.115c0,1.471,0.055,6.32,0.229,7.436c0.261,2.004,1.396,2.387,4.215,2.664v2.031H960.93
		v-2.031c3.832-0.43,4.848-0.551,5.178-3.17c0.122-1.119,0.122-2.559,0.122-5.307v-6.994c-3.012-0.109-5.553-0.287-8.671-0.287
		c-3.301,0-5.894,0.102-9.17,0.287v6.994c0.056,7.945,0.157,7.945,5.084,8.477v2.057H937.15V183.051z M984.201,183.051V181
		c3.728-0.488,4.495-0.918,4.539-4.902v-4.873v-15.453c-0.044-7.943-0.044-8.145-4.539-8.807v-2.057h15.864v2.057
		c-4.47,0.432-4.47,0.662-4.47,8.807v15.402c0,1.344,0.051,5.635,0.147,6.754c0.255,2.305,1.349,2.865,4.322,3.072v2.051H984.201
		L984.201,183.051z M875.539,183.051V181c3.757-0.488,4.49-0.918,4.539-4.902v-4.873v-15.453c-0.049-7.943-0.049-8.145-4.539-8.807
		v-2.057h15.832v2.057c-4.465,0.432-4.465,0.662-4.465,8.807v15.402c0,1.344,0.046,5.635,0.15,6.754
		c0.281,2.305,1.371,2.865,4.314,3.072v2.051H875.539L875.539,183.051z M851.529,183.051V181c4.795-0.311,4.795-0.531,4.843-7.617
		v-19.158l-13.315,29.309h-3.378l-12.261-29.715l-0.279,22.43c0,3.732,0.462,4.441,4.497,4.752v2.051h-13.222V181
		c3.068-0.18,4.262-0.588,4.464-3.176c0.105-1.016,0.278-4.238,0.33-6.346l0.534-15.988c0.052-1.242,0.052-3.066,0.052-4.412
		c0-3.783-0.759-4.064-4.165-4.113v-2.057h12.007l11.876,28.955l13.091-28.955h11.603v2.266c-4.549,0.273-4.593,0.756-4.549,6.695
		v15.73c0,2.59,0.055,5.838,0.236,7.766c0.2,2.824,1.291,3.357,4.313,3.635v2.051H851.529L851.529,183.051z M1087.229,183.051V181
		c3.127-0.18,4.321-0.207,4.748-2.389c0.559-2.514,0.708-25.152,0.762-29.107c-2.105-1.955-2.969-2.33-5.51-2.539v-2.057h11.449
		c3.193,4.545,3.881,5.559,9.515,12.543l10.634,13.166v-17.08c-0.05-6.039-0.197-6.363-6.269-6.572v-2.057h15.046v2.057
		c-4.184,0.049-4.54,0.912-4.593,7.131l-0.533,29.438h-2.276l-3.434-4.262c-1.693-2.16-3.449-4.34-5.177-6.414l-15.046-18.609v19.77
		c0,6.172,0.409,6.395,6.27,6.982v2.051H1087.229L1087.229,183.051z M769.004,163.918c0,13.193-8.987,20.123-19.081,20.123
		c-11.114,0-19.769-8.02-19.769-20.174c0-10.408,6.975-19.822,19.235-19.77C760.958,144.146,769.004,152.371,769.004,163.918
		L769.004,163.918z M749.949,180.512c2.175-0.043,5.194-1.113,7.561-4.717c2.689-4.139,3.248-7.945,3.094-12.893
		c-0.148-4.898-1.523-9.137-4.339-12.156c-1.216-1.293-3.627-3.223-6.806-3.119c-3.193,0-5.526,2.004-6.722,3.348
		c-2.716,3.07-3.958,7.332-3.958,12.258c0,4.973,0.656,8.754,3.477,12.789C744.744,179.549,747.785,180.512,749.949,180.512
		L749.949,180.512z M772.835,180.943v2.107h15.813v-2.107c-3.963-0.379-4.446-0.736-4.574-4.922l0.053-10.861h4.217
		c4.259,0,6.541,0.412,6.801,4.643h1.823v-12.586h-1.823c-0.209,4.111-1.345,4.551-5.988,4.551h-5.029v-13.229
		c1.343-0.178,2.104-0.205,4.54-0.205c7.466,0,9.849-0.049,10.862,5.914h1.877l-0.603-9.34h-27.969v2.057
		c2.741,0.279,3.954,0.432,4.339,2.207c0.255,1.195,0.307,5.406,0.307,6.934v13.369c0,1.039-0.052,5.66-0.104,6.547
		C777.254,180.207,776.789,180.564,772.835,180.943L772.835,180.943z M444.988,182.797v-2.074c3.728-0.49,4.469-0.895,4.515-4.902
		v-4.873V155.49c-0.046-7.916-0.046-8.145-4.515-8.779v-2.055h15.838v2.055c-4.495,0.438-4.495,0.635-4.495,8.779v15.406
		c0,1.346,0.051,5.635,0.181,6.748c0.254,2.336,1.344,2.867,4.314,3.078v2.074H444.988L444.988,182.797z M613.008,182.797v-2.074
		c3.734-0.49,4.494-0.895,4.549-4.902v-4.873V155.49c-0.055-7.916-0.055-8.145-4.549-8.779v-2.055h15.836v2.055
		c-4.494,0.438-4.494,0.635-4.494,8.779v15.406c0,1.346,0.051,5.635,0.181,6.748c0.254,2.336,1.345,2.867,4.313,3.078v2.074H613.008
		L613.008,182.797z M398.522,182.797v-2.074c3.147-0.158,4.345-0.211,4.771-2.367c0.533-2.535,0.715-25.172,0.757-29.107
		c-2.127-1.953-2.994-2.332-5.528-2.537v-2.055h11.467c3.18,4.516,3.886,5.557,9.492,12.533l10.661,13.174v-17.078
		c-0.051-6.041-0.229-6.369-6.268-6.574v-2.055h15.002v2.055c-4.166,0.027-4.526,0.916-4.57,7.131l-0.557,29.438h-2.263
		l-3.396-4.264c-1.729-2.182-3.457-4.314-5.177-6.445l-15.081-18.578v19.771c0,6.168,0.435,6.369,6.273,6.979v2.055H398.522
		L398.522,182.797z M581.491,170.896l1.956-0.197c2.078,6.211,5.604,9.533,11.345,9.533c4.033,0,7.611-1.725,7.611-5.809
		c0-4.342-4.163-6.066-5.986-6.805c-1.53-0.607-3.153-1.113-4.673-1.697c-3.125-1.143-9.01-3.553-9.01-10.963
		c0-7.105,5.604-11.141,12.152-11.141c2.542,0,5.51,0.557,8.76,2.613l2.305-1.676l1.248,11.35l-1.904,0.375
		c-0.635-2.51-1.117-3.646-2.637-5.658c-1.833-2.361-4.418-3.477-7.438-3.477c-4.062,0-6.419,1.955-6.419,4.975
		c0,4.518,4.462,6.064,8.729,7.436c2.178,0.734,3.957,1.318,5.506,2.232c3.018,1.801,5.508,5.127,5.508,9.719
		c0,6.598-5.408,12.055-13.428,12.055c-5.199,0-8.4-2.055-9.87-3.039l-3.197-2.291L581.491,170.896L581.491,170.896z
		 M644.197,182.797v-1.625c3.502-0.076,4.495-1.344,4.495-4.363v-28.117h-4.747c-4.313,0-7.178-0.172-7.513,6.65h-1.979
		l0.305-10.713h34.641l0.329,10.713h-2.007c-0.33-6.822-3.17-6.65-7.483-6.65h-4.751v28.117c0,3.02,0.969,4.287,4.471,4.363v1.625
		H644.197L644.197,182.797z M369.36,144.629v2.082c-5.101,0.354-5.101,0.533-5.151,8.631v8.957c0,4.668,0.105,8.654,2.566,12.232
		c1.955,2.848,5.254,3.195,6.925,3.195c5.456,0,8.479-2.816,9.771-7.336c1.065-3.551,1.118-10.25,1.118-14.66
		c0-1.428,0-5.963-0.053-7.189c-0.199-3.477-2.003-3.576-5.405-3.83v-2.055h14.547v2.055c-3.582-0.074-4.339,0.736-4.548,4.543
		c-0.046,0.889-0.478,11.496-0.532,13.121c-0.125,2.893-0.28,5.76-0.911,8.525c-2.617,10.277-12.591,10.816-15.252,10.816
		c-2.105,0-6.419-0.334-9.997-2.717c-5.685-3.838-5.738-9.547-5.738-15.707v-8.654c-0.051-4.09-0.051-5.941-0.151-6.908
		c-0.33-2.385-1.527-2.834-4.392-3.02v-2.055h17.204V144.629z M504.574,144.629v2.082c-3.678,0.533-4.192,1.549-7.309,9.117
		l-11.623,27.705h-2.054l-10.408-28.145c-2.585-7.232-2.916-8.094-6.749-8.678v-2.082h18.093v2.082
		c-3.099,0.102-5.101,0.205-5.101,2.41c0,1.092,0.279,2.006,1.319,5.176l6.646,19.416l7.769-20.041
		c0.481-1.352,1.121-3.105,1.121-4.041c0-2.768-2.691-2.893-5.083-2.92v-2.082H504.574L504.574,144.629z M685.385,182.797v-2.074
		c2.996-0.311,4.141-0.412,4.873-1.174c0.891-0.861,0.891-1.82,0.917-5.988v-6.701l-10.13-15.732
		c-2.74-4.113-2.818-4.211-6.47-4.416v-2.131h19.849v2.131c-4.018,0.102-5.79,0.205-5.79,2.031c0,1.041,0.708,2.232,1.703,3.855
		l5.805,9.543l5.405-9.492c0.971-1.902,1.529-3.018,1.529-3.906c0-1.826-1.58-1.846-4.244-2.031v-2.131h14.896v2.131
		c-3.834,0.102-4.943,1.25-9.308,8.35l-5.938,9.953v7.939c0,6.926,0.024,7.459,5.71,7.77v2.051h-18.809V182.797z M537.26,182.797
		c0-2.766,0.46-7.283,0.781-9.896h-1.822c-1.319,6.826-5.126,6.498-10.662,6.498c-5.072,0-6.086-1.365-6.086-3.859v-10.66h4.111
		c4.689,0,6.033,0.414,6.033,4.672h1.835v-12.588h-1.835c-0.35,3.4-1.064,4.518-5.979,4.518h-4.165v-13.449h4.697
		c6.471,0,8.803,0.488,9.665,5.658h1.729l-0.235-9.061h-27.146v2.057c2.739,0.279,3.929,0.432,4.314,2.232
		c0.277,1.193,0.304,5.379,0.304,6.91v13.393c0,1.041-0.026,5.633-0.08,6.547c-0.131,4.164-0.609,4.543-4.538,4.922v2.107H537.26
		L537.26,182.797z M1042.391,166.201v2.061c-3.451,0.197-3.451,1.188-3.58,8.42v2.867c-2.941,1.828-7.18,4.467-14.664,4.467
		c-13.121,0-19.389-9.949-19.389-19.922c0-12.205,8.25-20.168,18.621-20.168c6.498,0,10.254,2.436,13.379,4.334l1.983-2.26
		l0.303,11.902l-1.552,0.305c-0.785-2.283-1.957-4.9-4.822-7.766c-1.264-1.244-3.701-2.842-7.562-2.842
		c-6.645,0-12.181,5.609-12.181,16.604c0,8.75,4.34,16.266,11.753,16.266c4.235,0,6.417-2.975,6.62-3.203
		c0.688-1.018,0.838-1.949,0.758-3.604c-0.174-4.873-0.813-4.977-5.047-5.4v-2.061H1042.391L1042.391,166.201z M554.973,162.324
		c1.014,0.221,2.49,0.398,3.557,0.398c4.338,0,7.613-3.393,7.785-6.443c0.229-4.416-2.006-8.275-9.009-8.275
		c-0.987,0-1.571,0.053-2.333,0.236V162.324L554.973,162.324z M554.973,170.643c0.053,8.756,0.053,9.922,4.646,10.047v2.107h-15.937
		v-2.107c4.105-0.33,4.544-0.988,4.596-5.092c0.043-1.58,0.043-3.355,0.043-4.898v-13.807c0-4.572-0.043-6.195-0.2-7.439
		c-0.278-2.107-1.319-2.516-4.438-2.768v-2.057l17.283,0.053c9.411,0,12.381,4.49,12.381,9.801c0,3.674-2.289,8.445-7.537,10.068
		l6.78,11.75c2.434,4.492,3.726,5.512,6.825,5.938v1.295c-0.839,0.076-1.651,0.102-2.516,0.102c-7.185,0-10.155-2.463-13.175-8.906
		l-2.104-4.467c-2.279-4.822-3.021-4.518-6.646-4.594V170.643L554.973,170.643z M554.973,170.643"/>
	<rect x="363.447" y="5.796" fill="#FFFFFF" width="14.339" height="112.569"/>
	<path fill="#FFFFFF" d="M463.078,5.796v96.354h-0.33L418.949,5.796h-20.275v112.569h12.791V20.743h0.305l44.438,97.623h19.638
		V5.796H463.078z M463.078,5.796"/>
	<path fill="#FFFFFF" d="M508.126,118.365V66.9h39.312V54.441h-39.312V18.254h41.495V5.796h-55.834v112.569H508.126z
		 M508.126,118.365"/>
	<path fill="#FFFFFF" d="M592.022,120.699c23.854,0,35.377-12.332,35.377-43.497V40.23c0-22.438-11.522-36.795-35.377-36.795
		s-35.397,14.357-35.397,36.795v36.972C556.625,108.367,568.168,120.699,592.022,120.699L592.022,120.699z M592.022,108.695
		c-13.575,0-20.73-6.24-20.73-30.879V39.772c0-23.551,16.217-24.312,20.73-24.312c4.518,0,20.73,0.761,20.73,24.312v38.043
		C612.753,102.455,605.574,108.695,592.022,108.695L592.022,108.695z M592.022,108.695"/>
	<path fill="#FFFFFF" d="M659.375,18.254h21.67c11.066,0,15.127,9.032,15.127,17.153c0,9.82-4.997,18.704-15.275,18.704h-21.521
		V18.254z M676.225,66.597c4.82,0,15.887,0.608,16.977,14.337c1.247,14.974,0.331,29.615,4.365,37.431h14.975
		c-2.185-7.029-3.736-24.641-3.912-29.49c-0.761-22.608-5.458-26.971-18.396-28.978v-0.331c13.272-2.333,20.58-12.46,20.58-25.708
		c0-14.033-7.003-28.063-26.946-28.063h-38.831v112.569h14.34V66.597H676.225z M676.225,66.597"/>
	<path fill="#FFFFFF" d="M738.578,18.254h0.299l30.884,100.111h13.556l31.518-100.111h0.309v100.111h14.336V5.796h-23.706
		l-28.674,94.474h-0.334L748.396,5.796h-23.22v112.569h13.402V18.254z M738.578,18.254"/>
	<path fill="#FFFFFF" d="M837.601,118.365h14.487l8.427-26.824h43.49l8.097,26.824h16.066L891.521,5.796h-18.22L837.601,118.365z
		 M900.103,79.054h-36.01l17.61-60.013h0.333L900.103,79.054z M900.103,79.054"/>
	<path fill="#FFFFFF" d="M925.679,5.796v12.458h29.618v100.111h14.363V18.254h29.611V5.796H925.679z M925.679,5.796"/>
	<rect x="1008.946" y="5.796" fill="#FFFFFF" width="14.338" height="112.569"/>
	<path fill="#FFFFFF" d="M1078.322,120.699c23.857,0,35.408-12.332,35.408-43.497V40.23c0-22.438-11.551-36.795-35.408-36.795
		c-23.856,0-35.398,14.357-35.398,36.795v36.972C1042.924,108.367,1054.466,120.699,1078.322,120.699L1078.322,120.699z
		 M1078.322,108.695c-13.571,0-20.729-6.24-20.729-30.879V39.772c0-23.551,16.214-24.312,20.729-24.312
		c4.523,0,20.736,0.761,20.736,24.312v38.043C1099.059,102.455,1091.873,108.695,1078.322,108.695L1078.322,108.695z
		 M1078.322,108.695"/>
	<path fill="#FFFFFF" d="M1196.813,5.796v96.354h-0.306L1152.71,5.796h-20.284v112.569h12.791V20.743h0.307l44.435,97.623h19.64
		V5.796H1196.813z M1196.813,5.796"/>
	<path fill="#FFFFFF" d="M1245.941,118.365h14.492l8.42-26.824h43.499l8.12,26.824h16.043L1299.894,5.796h-18.251L1245.941,118.365z
		 M1308.442,79.054h-36.011l17.613-60.013h0.332L1308.442,79.054z M1308.442,79.054"/>
	<path fill="#FFFFFF" d="M1409.645,5.796v96.354h-0.296l-43.833-96.354h-20.278v112.569h12.794V20.743h0.33l44.439,97.623h19.639
		V5.796H1409.645z M1409.645,5.796"/>
	<path fill="#FFFFFF" d="M1456.118,18.254h18.852c14.972,0,22.003,8.426,22.003,31.188V72.2c0,26.193-7.336,33.679-27.303,33.679
		h-13.552V18.254z M1441.779,118.365h25.855c19.667,0,31.037-4.848,37.125-14.51c4.672-7.492,6.852-21.375,6.852-45.381
		c0-3.577-0.457-26.037-5-35.55c-5.604-12.002-15.883-17.128-30.221-17.128h-34.611V118.365z M1441.779,118.365"/>
	<path fill="#FFFFFF" d="M1546.859,5.796v12.458h29.623v100.111h14.335V18.254h29.64V5.796H1546.859z M1546.859,5.796"/>
	<path fill="#FFFFFF" d="M1687.174,118.365v-12.486h-44.586V66.9h40.523V54.441h-40.523V18.254h43.646V5.796h-57.988v112.569
		H1687.174z M1687.174,118.365"/>
	<path fill="#FFFFFF" d="M1763.589,36.802c1.39-21.821-7.186-33.367-29.47-33.367c-22.154,0-36.186,9.055-36.186,40.857v31.819
		c0,43.648,21.521,44.587,35.553,44.587c7.338,0,32.43,0,31.797-35.55h-14.794c-0.152,21.974-13.422,23.546-17.794,23.546
		c-11.06,0-20.092-3.271-20.092-30.879V47.715c0-19.338,2.791-22.125,3.271-23.373c0.457-1.574,5.127-8.727,16.979-8.727
		c2.966,0,9.665,1.239,12.637,4.822c2.971,3.572,3.423,9.973,3.271,16.364H1763.589z M1763.589,36.802"/>
	<path fill="#FFFFFF" d="M1794.137,118.365V66.9h39.438v51.465h14.36V5.796h-14.36v48.645h-39.438V5.796h-14.336v112.569H1794.137z
		 M1794.137,118.365"/>
	<path fill="#FFFFFF" d="M1932.293,5.796v96.354h-0.334l-43.801-96.354h-20.271v112.569h12.787V20.743h0.299l44.439,97.623h19.641
		V5.796H1932.293z M1932.293,5.796"/>
	<path fill="#FFFFFF" d="M1999.009,120.699c23.854,0,35.4-12.332,35.4-43.497V40.23c0-22.438-11.546-36.795-35.4-36.795
		c-23.86,0-35.377,14.357-35.377,36.795v36.972C1963.632,108.367,1975.148,120.699,1999.009,120.699L1999.009,120.699z
		 M1999.009,108.695c-13.55,0-20.73-6.24-20.73-30.879V39.772c0-23.551,16.212-24.312,20.73-24.312
		c4.513,0,20.73,0.761,20.73,24.312v38.043C2019.739,102.455,2012.589,108.695,1999.009,108.695L1999.009,108.695z
		 M1999.009,108.695"/>
	<path fill="#FFFFFF" d="M2108.001,118.365v-12.486h-41.315V5.796h-14.365v112.569H2108.001z M2108.001,118.365"/>
	<path fill="#FFFFFF" d="M2149.467,120.699c23.855,0,35.4-12.332,35.4-43.497V40.23c0-22.438-11.545-36.795-35.4-36.795
		c-23.848,0-35.4,14.357-35.4,36.795v36.972C2114.066,108.367,2125.619,120.699,2149.467,120.699L2149.467,120.699z
		 M2149.467,108.695c-13.551,0-20.736-6.24-20.736-30.879V39.772c0-23.551,16.218-24.312,20.736-24.312
		c4.52,0,20.736,0.761,20.736,24.312v38.043C2170.203,102.455,2163.047,108.695,2149.467,108.695L2149.467,108.695z
		 M2149.467,108.695"/>
	<path fill="#FFFFFF" d="M2271.711,35.866c0.938-23.523-10.609-32.431-34.92-32.431c-23.855,0-35.401,14.357-35.401,36.795v36.972
		c0,31.165,11.546,43.497,35.401,43.497c14.494,0,25.249-3.428,34.463-8.426V57.54h-35.096v12.485h20.729v33.672
		c-2.942,2.182-9.823,4.998-20.097,4.998c-13.574,0-20.73-6.24-20.73-30.879V39.772c0-23.551,16.211-24.312,20.73-24.312
		c14.494,0,19.944,7.159,19.944,20.405H2271.711z M2271.711,35.866"/>
	<path fill="#FFFFFF" d="M2317.72,60.202l-22.002-54.406h-16.065l30.248,69.682v42.888h14.366V75.478l30.706-69.682h-14.488
		L2317.72,60.202z M2317.72,60.202"/>
	<path fill="#FFFFFF" d="M2386.463,84.844c-0.305,10.758-0.305,36.16,32.894,35.855c18.573,0,34.942-7.633,34.942-31.341
		c0-35.706-50.527-32.124-50.527-56.92c0-12.155,8.732-16.52,17.308-16.52c13.574,0,17.46,8.092,17.308,20.428h14.975
		c0.938-22.912-10.608-32.911-31.192-32.911c-18.854,0-33.038,10.603-33.038,30.579c0,33.827,50.498,31.007,50.498,55.955
		c0,13.424-8.727,18.244-20.098,18.244c-9.213,0-18.884-4.82-18.884-20.098v-3.271H2386.463z M2386.463,84.844"/>
	<path fill="#FFFFFF" d="M2528.195,118.365v-12.486h-44.585V66.9h40.522V54.441h-40.522V18.254h43.647V5.796h-57.989v112.569
		H2528.195z M2528.195,118.365"/>
	<path fill="#FFFFFF" d="M2554.229,18.254h21.675c11.065,0,15.127,9.032,15.127,17.153c0,9.82-4.999,18.704-15.279,18.704h-21.522
		V18.254z M2571.086,66.597c4.818,0,15.884,0.608,16.974,14.337c1.248,14.974,0.334,29.615,4.367,37.431h14.969
		c-2.181-7.029-3.728-24.641-3.88-29.49c-0.786-22.608-5.48-26.971-18.398-28.978v-0.331c13.246-2.333,20.579-12.46,20.579-25.708
		c0-14.033-7.028-28.063-26.974-28.063h-38.829v112.569h14.336V66.597H2571.086z M2571.086,66.597"/>
	<path fill="#FFFFFF" d="M2691.899,5.796h-14.641l-26.369,98.991h-0.299l-25.729-98.991h-15.585l32.582,112.569h17.16
		L2691.899,5.796z M2691.899,5.796"/>
	<rect x="2701.418" y="5.796" fill="#FFFFFF" width="14.342" height="112.569"/>
	<path fill="#FFFFFF" d="M2800.264,36.802c1.425-21.821-7.156-33.367-29.457-33.367c-22.137,0-36.169,9.055-36.169,40.857v31.819
		c0,43.648,21.492,44.587,35.529,44.587c7.332,0,32.436,0,31.82-35.55h-14.816c-0.153,21.974-13.399,23.546-17.766,23.546
		c-11.065,0-20.12-3.271-20.12-30.879V47.715c0-19.338,2.813-22.125,3.27-23.373c0.481-1.574,5.153-8.727,16.998-8.727
		c2.978,0,9.676,1.239,12.647,4.822c2.937,3.572,3.423,9.973,3.271,16.364H2800.264z M2800.264,36.802"/>
	<path fill="#FFFFFF" d="M2874.494,118.365v-12.486h-44.591V66.9h40.528V54.441h-40.528V18.254h43.653V5.796h-58.014v112.569
		H2874.494z M2874.494,118.365"/>
	<path fill="#FFFFFF" d="M2883.374,84.844c-0.305,10.758-0.305,36.16,32.892,35.855c18.573,0,34.943-7.633,34.943-31.341
		c0-35.706-50.527-32.124-50.527-56.92c0-12.155,8.732-16.52,17.313-16.52c13.545,0,17.454,8.092,17.302,20.428h14.975
		c0.938-22.912-10.607-32.911-31.192-32.911c-18.854,0-33.061,10.603-33.061,30.579c0,33.827,50.521,31.007,50.521,55.955
		c0,13.424-8.728,18.244-20.099,18.244c-9.213,0-18.883-4.82-18.883-20.098v-3.271H2883.374z M2883.374,84.844"/>
</g>
<g>
</g>
<g>
</g>
<g>
</g>
<g>
</g>
<g>
</g>
<g>
</g>
</svg>
